<?xml version="1.0" encoding="UTF-8" standalone="no"?>
<svg
   xmlns:dc="http://purl.org/dc/elements/1.1/"
   xmlns:cc="http://creativecommons.org/ns#"
   xmlns:rdf="http://www.w3.org/1999/02/22-rdf-syntax-ns#"
   xmlns:svg="http://www.w3.org/2000/svg"
   xmlns="http://www.w3.org/2000/svg"
   xmlns:sodipodi="http://sodipodi.sourceforge.net/DTD/sodipodi-0.dtd"
   xmlns:inkscape="http://www.inkscape.org/namespaces/inkscape"
   width="16"
   height="16"
   fill="currentColor"
   class="bi bi-file-binary-fill"
   viewBox="0 0 16 16"
   version="1.1"
   id="svg1472"
   sodipodi:docname="file-binary-fill.svg"
   inkscape:version="0.92.4 (5da689c313, 2019-01-14)">
  <metadata
     id="metadata1478">
    <rdf:RDF>
      <cc:Work
         rdf:about="">
        <dc:format>image/svg+xml</dc:format>
        <dc:type
           rdf:resource="http://purl.org/dc/dcmitype/StillImage" />
        <dc:title></dc:title>
      </cc:Work>
    </rdf:RDF>
  </metadata>
  <defs
     id="defs1476" />
  <sodipodi:namedview
     pagecolor="#ffffff"
     bordercolor="#666666"
     borderopacity="1"
     objecttolerance="10"
     gridtolerance="10"
     guidetolerance="10"
     inkscape:pageopacity="0"
     inkscape:pageshadow="2"
     inkscape:window-width="640"
     inkscape:window-height="480"
     id="namedview1474"
     showgrid="false"
     inkscape:zoom="19.956493"
     inkscape:cx="8"
     inkscape:cy="8"
     inkscape:window-x="0"
     inkscape:window-y="0"
     inkscape:window-maximized="1"
     inkscape:current-layer="svg1472" />
  <path
     d="M5.526 9.273c-.542 0-.832.563-.832 1.612 0 .088.003.173.006.252l1.56-1.143c-.126-.474-.375-.72-.733-.72zm-.732 2.508c.126.472.372.718.732.718.54 0 .83-.563.83-1.614 0-.085-.003-.17-.006-.25l-1.556 1.146z"
     id="path1468"
     style="fill:#cccccc" />
  <path
     d="M12 0H4a2 2 0 0 0-2 2v12a2 2 0 0 0 2 2h8a2 2 0 0 0 2-2V2a2 2 0 0 0-2-2zM7.05 10.885c0 1.415-.548 2.206-1.524 2.206C4.548 13.09 4 12.3 4 10.885c0-1.412.548-2.203 1.526-2.203.976 0 1.524.79 1.524 2.203zm3.805 1.52V13h-3v-.595h1.181V9.5h-.05l-1.136.747v-.688l1.19-.786h.69v3.633h1.125z"
     id="path1470"
     style="fill:#cccccc" />
</svg>
